<svg fill="none" height="23" viewBox="0 0 98 23" width="98" xmlns="http://www.w3.org/2000/svg"><g fill="#000"><path d="m12.1606 5.02978c.4599.19414.8477.52727 1.1089.95274.2611.42547.3827.92197.3477 1.41999.0283.46627-.0752.9311-.2986 1.34135s-.5577.74939-.9647.97864c-.491.26364-1.1056.3339-3.8606.3691l-3.29874.0703v-5.48363h3.12298c2.68466 0 3.21146.05273 3.84306.35151zm-11.178178 6.76662v10.8091h4.211588v-8.8054l1.61422.0549 1.61477.0549 2.4716 4.339 2.4567 4.339 2.4217.0176c.8024.0312 1.606.0019 2.404-.0879 0-.0549-1.1227-2.0563-2.4716-4.4488-1.3693-2.3903-2.5095-4.394-2.5446-4.4489-.0352-.0703.3844-.3339.9474-.6151 1.3073-.6562 2.3979-1.6753 3.1411-2.9352.7722-1.54664.8074-4.27088.0703-5.71209-.4918-.81937-1.1507-1.52594-1.9338-2.07368s-1.6728-.92436-2.6112-1.10533c-2.1117-.179096-4.23161-.242902-6.35029-.191136h-5.437494z"/><path d="m68.0146 11.9722v10.6333h4.0359v-21.26663h-4.0359z"/><path d="m90.3359 11.3043c.055 8.1903.055 8.2254.4565 9.0515.5446 1.0163 1.3906 1.839 2.4216 2.3552.8246.2104 1.6767.2934 2.5265.246h1.9306v-3.5151h-1.1232c-.5541.0758-1.1166-.0556-1.5797-.3691l-.4558-.3515v-8.2431h3.1587v-3.33935h-3.1587v-4.04241h-4.2292z"/><path d="m28.3217 10.5485c.5025.3638.9065.8471 1.1754 1.4061l.4564.8964-3.8957.0549c-2.1421.0176-3.9304 0-3.9831-.0549-.2456-.2461 1.0177-1.8125 1.8954-2.3376.8947-.54486 1.0523-.58001 2.2986-.52728 1.1232.05268 1.439.12298 2.053.56238zm-4.7377-3.42723c-1.3139.40055-2.4958 1.14726-3.4218 2.16182-.9635.96001-1.6228 2.18261-1.8954 3.51511-.9475 4.0095.7898 7.8542 4.2994 9.5261 1.0875.5273 1.2281.5448 3.4218.5448 1.9652 0 2.4216-.0549 3.2987-.4218 1.4484-.6816 2.6677-1.7692 3.5097-3.1307l.4564-.8612-1.4038-.8238c-.4948-.3106-1.011-.5859-1.5445-.8239-.2674.2201-.4984.4811-.6844.7733-.3194.4827-.7325.8963-1.2148 1.2164-.4823.32-1.024.5399-1.5929.6467-.9041.2098-1.8539.0784-2.6671-.3691-1.0529-.5273-2.1058-1.9158-2.1058-2.7946 0-.3515.0703-.3515 5.7907-.3515h5.7912v-1.4764c0-3.3745-1.5621-5.87024-4.4753-7.15327-1.2467-.56462-4.1407-.6525-5.5621-.17796z"/><path d="m59.6805 10.9879c.582.2793 1.095.684 1.5022 1.1851.4071.5011.6982 1.0861.8525 1.713s.1678 1.2802.0397 1.913-.3948 1.2293-.7808 1.7468c-.6249.7647-1.4849 1.3015-2.4463 1.5272-.9614.2256-1.9704.1274-2.8703-.2793-.969-.5513-1.7327-1.4025-2.1761-2.4254-.325-1.2613-.1815-2.5976.4037-3.7612.5554-.8943 1.42-1.5534 2.4295-1.8519 1.0094-.2985 2.0934-.2157 3.0459.2327zm-4.2841-3.93697c-2.2634.63273-4.3517 2.30242-5.2118 4.18307-.6471 1.6098-.8589 3.3617-.614 5.0793.6843 4.1655 3.7551 6.6459 8.2474 6.6459 2.6325 0 4.3873-.6328 6.0894-2.1618 1.0184-.9545 1.7425-2.1803 2.0872-3.5328.3521-1.7818.298-3.6201-.1582-5.3781-.4336-1.059-1.0837-2.01569-1.9087-2.80869-.8249-.793-1.8065-1.40481-2.8818-1.7962-1.8403-.50599-3.7719-.58489-5.6473-.23068z"/><path d="m33.498 7.38497c.0549.12303 1.4566 3.60303 3.1235 7.73333l3.0357 7.5048 1.9124-.0549 1.913-.0549 2.966-7.2939c1.6323-4.0095 3.0208-7.46973 3.0708-7.69821l.1054-.40425-2.142.05493-2.158.05492-1.8603 4.95631c-.5652 1.6462-1.2213 3.2598-1.9652 4.8334-.0703-.0703-.9304-2.32-1.9305-5.0091l-1.8246-4.86849h-2.1756c-1.7548 0-2.1409.05273-2.0706.24606z"/><path d="m74.1562 11.9371c0 2.7067.0879 5.2551.1928 5.8351.1452.9916.5405 1.9298 1.1487 2.7262.6081.7964 1.4092 1.4248 2.3275 1.8259 1.1232.5273 1.2462.5449 3.5272.5449 2.2288 0 2.4392-.0352 3.4218-.4943.9304-.4125 1.7442-1.0489 2.3689-1.8524.6247-.8034 1.0407-1.7491 1.2111-2.7525.1049-.58.1927-3.1306.1927-5.8351v-4.79598h-4.021l-.0549 4.77838c-.0549 4.5873-.0703 4.8333-.4564 5.5364-.5613 1.0545-1.5088 1.5115-2.9302 1.4236-1.2633-.0703-1.9833-.5097-2.4716-1.4939-.2982-.5976-.3334-1.1952-.3845-5.4661l-.0549-4.77838h-4.0172z"/></g></svg>