<svg fill="none" height="36" viewBox="0 0 99 36" width="99" xmlns="http://www.w3.org/2000/svg"><g fill="#000"><path d="m62.1377 17.3374c-1.2418.09-2.4708-.2995-3.4341-1.0884-.3976-.414-.7042-.9066-.9-1.4462s-.2765-1.1143-.2368-1.6869v-3.4554h2.8713v3.3247c0 1.6553.9246 2.0058 1.7002 2.0058s1.6842-.3505 1.6842-2.0194v-3.31051h2.8731v3.46841c.0399.5694-.0394 1.1408-.2328 1.6779-.1934.537-.4967 1.0278-.8904 1.441-.765.7236-1.9201 1.089-3.4347 1.089zm29.5405-.2365h-2.8701v-10.35603h2.8707v3.70603h3.4879v-3.70603h2.8878v10.35603h-2.8884v-4.3043h-3.4879zm-20.0038 0h-2.8128v-10.35603h5.1142c2.5503 0 4.0128 1.2379 4.0128 3.39683.0144.643-.1729 1.2743-.5358 1.8053-.3628.531-.8829.935-1.4872 1.1553l2.331 3.9974h-3.2378l-1.9627-3.5878h-1.4188v3.5878zm0-8.21719v2.52069h1.965c.9636 0 1.537-.4729 1.537-1.2621 0-.78921-.5752-1.25859-1.537-1.25859zm-24.583 8.21779h-3.0327l-2.6378-10.35663h2.8577l1.4495 6.85753 1.8025-6.85753h2.6667l1.8019 6.85753 1.4507-6.85753h2.8565l-2.6366 10.35603h-3.0326l-1.7735-6.7523-1.7735 6.7523zm37.4964 0h-2.8725v-8.10074h-2.6661v-2.25589h8.2053v2.25589h-2.6667v8.09894zm-24.1497-8.40578h-2.8719v-1.95085h2.8713zm6.2575 0h-2.8731v-1.95085h2.8731v1.94789z"/><path d="m61.9295 29.3345h-3.1633c-.8996-.0011-1.7621-.3589-2.3982-.9951-.6361-.6361-.994-1.4986-.9951-2.3982v-3.2076c.001-.8996.3587-1.7621.9947-2.3982.6361-.6362 1.4985-.994 2.398-.9951h3.1639c.8996.0011 1.762.3589 2.398.9951.6361.6361.9938 1.4986.9947 2.3982v3.207c-.0007.8997-.3584 1.7623-.9945 2.3986-.636.6363-1.4985.9942-2.3982.9953zm-3.1633-7.6296c-.1205.0002-.2398.0241-.3511.0704s-.2124.114-.2975.1994-.1525.1867-.1985.2981c-.0459.1115-.0694.2309-.0692.3514v3.4288c.0011.2424.0981.4745.2698.6456.1717.1712.4041.2674.6465.2677h3.1633c.243-.0002.4759-.0966.6478-.2683s.2687-.4045.2691-.6474v-3.4288c-.0001-.2431-.0968-.4762-.2687-.6481-.1719-.172-.405-.2686-.6482-.2688zm-14.0993 7.5297h-2.477v-8.2509l2.01-1.5435 3.6971 3.1054 3.699-3.1036 2.0099 1.5417v8.2497h-2.4781v-6.2782l-3.2308 2.7034-3.2301-2.7034zm47.2649 0h-2.477v-9.7944h8.5973v2.3575h-6.1203v1.9125h5.473v2.3593h-5.473zm-7.7656 0h-2.6336v-4.6684l-4.1092-3.6002 1.9159-1.5258 3.5098 3.0191 3.5074-3.015 1.9207 1.5217-4.111 3.6002v4.6702zm-10.4843 0h-6.5921v-9.7944h6.585c.778.0011 1.5238.3107 2.0738.8609.5501.5503.8594 1.2962.8602 2.0742v3.9307c-.0008.7762-.3095 1.5204-.8583 2.0693-.5488.549-1.293.8578-2.0692.8587zm-4.1157-7.4369v5.0693h4.1151c.1196-.0003.2343-.048.3188-.1327.0846-.0846.1321-.1993.1323-.319v-4.1671c-.0003-.1195-.048-.234-.1325-.3184-.0846-.0844-.1991-.1319-.3186-.1321z"/><path d="m34.2891 16.2401v-12.697l-5.3258-3.073129-11.3982 6.580519-11.39775-6.580519-5.324088 3.073129v12.697l8.317228 4.8021 5.32481-3.0731-8.31724-4.8028v-6.54937l11.39634 6.58297 11.3985-6.58297v6.54937z"/><path d="m.843262 19.6981v12.6981l5.324088 3.0738 11.39635-6.583 11.3985 6.583 5.3269-3.0738v-12.6981l-8.3204-4.8035-5.3241 3.0742 8.3173 4.8034v6.5498l-11.3985-6.583-11.3964 6.583v-6.5498z"/></g></svg>